# xmcd
# 
# Track frame offsets:
#     150
#     53197
#     101637
#     141810
#     161825
#     163902
#     184335
# 
# Disc length: 2978
# 
# Revision: 2
# Processed by: cddbd v1.5.2PL0 Copyright (c) Steve Scherf et al.
# Submitted via: fre:ac v1.0.31
# 
DISCID=630ba007
DTITLE=Di Gi Charat - CD DRAMA Di Gi Charat 番外編　でじこの野望vol.2 アニメ店長と対決にょ！
DYEAR=0
DGENRE=Other
TTITLE0=第1章
TTITLE1=第2章
TTITLE2=第3章
TTITLE3=第4章[True END]
TTITLE4=Information
TTITLE5=第4章[Another END]
TTITLE6=Message
EXTD=
EXTT0=
EXTT1=
EXTT2=
EXTT3=
EXTT4=
EXTT5=
EXTT6=
PLAYORDER=
